<svg xmlns="http://www.w3.org/2000/svg" viewBox="0 0 100 100" width="100" height="100">
  <!-- water -->
  <path d="M4 82 Q24 76 44 82 T84 82 T124 82" stroke="#37a6e0" stroke-width="5"
        fill="none" stroke-linecap="round"/>
  <path d="M2 90 Q26 84 50 90 T98 90" stroke="#7fd0f2" stroke-width="4"
        fill="none" stroke-linecap="round" opacity="0.8"/>
  <!-- board -->
  <path d="M14 80 Q50 71 82 79 Q50 88 14 80 Z" fill="#ffd23f"/>
  <!-- sail -->
  <path d="M72 10 Q96 30 92 46 Q74 50 50 66 Z" fill="#ff5a4d"/>
  <path d="M72 10 Q86 30 83 44 L64 55 Z" fill="#ff8a3d"/>
  <!-- mast (luff) -->
  <path d="M50 66 L72 9" stroke="#ffffff" stroke-width="3.4" fill="none" stroke-linecap="round"/>
  <!-- boom -->
  <path d="M56 42 L86 45" stroke="#e8f6ff" stroke-width="2.6" fill="none" stroke-linecap="round"/>
  <!-- windsurfer: leaning back, holding the boom -->
  <path d="M32 78 L34 60 M44 78 L38 60" stroke="#12608a" stroke-width="6"
        fill="none" stroke-linecap="round" stroke-linejoin="round"/>
  <path d="M36 60 L33 44" stroke="#0e3a5c" stroke-width="7" fill="none" stroke-linecap="round"/>
  <path d="M34 46 L57 43" stroke="#0e3a5c" stroke-width="5" fill="none" stroke-linecap="round"/>
  <circle cx="31" cy="38" r="6.5" fill="#f6b98a"/>
</svg>
